<?xml version="1.0" encoding="utf-8"?>
<!-- Generator: Adobe Illustrator 22.1.0, SVG Export Plug-In . SVG Version: 6.00 Build 0)  -->
<svg version="1.1"
	 id="svg2992" inkscape:version="0.91pre2 r13516" sodipodi:docname="ഉ.svg" xmlns:cc="http://creativecommons.org/ns#" xmlns:dc="http://purl.org/dc/elements/1.1/" xmlns:inkscape="http://www.inkscape.org/namespaces/inkscape" xmlns:rdf="http://www.w3.org/1999/02/22-rdf-syntax-ns#" xmlns:sodipodi="http://sodipodi.sourceforge.net/DTD/sodipodi-0.dtd" xmlns:svg="http://www.w3.org/2000/svg"
	 xmlns="http://www.w3.org/2000/svg" xmlns:xlink="http://www.w3.org/1999/xlink" x="0px" y="0px" viewBox="0 0 2000 2048"
	 style="enable-background:new 0 0 2000 2048;" xml:space="preserve">
<sodipodi:namedview  bordercolor="#666666" borderopacity="1.0" id="base" inkscape:current-layer="layer1" inkscape:cx="1042.0581" inkscape:cy="471.61676" inkscape:guide-bbox="true" inkscape:pageopacity="0.0" inkscape:pageshadow="2" inkscape:window-height="853" inkscape:window-maximized="1" inkscape:window-width="1600" inkscape:window-x="1598" inkscape:window-y="-3" inkscape:zoom="0.16051324" pagecolor="#ffffff" showgrid="true" showguides="true">
	<sodipodi:guide  id="guide5596" orientation="horizontal" position="0,600"></sodipodi:guide>
	
		<inkscape:grid  dotted="true" empspacing="3" enabled="true" id="grid3769" snapvisiblegridlinesonly="true" spacingx="4px" spacingy="4px" type="xygrid" units="px" visible="true">
		</inkscape:grid>
	<sodipodi:guide  id="guide2985" orientation="0,1" position="-1040,1600"></sodipodi:guide>
</sodipodi:namedview>
<g id="layer1" transform="translate(0,1048)" inkscape:groupmode="layer" inkscape:label="Layer 1">
	<path id="path3895-0" inkscape:connector-curvature="0" d="M843.8-861.5c-139.5-0.3-276.7,36.5-386.2,114.7
		c-116.9,83.4-199.2,218.1-206,386.9c0,0.3,0,0.6,0,0.9c-9.2,326.2,136.5,529.7,310.1,580.8c86.8,25.6,182,9.5,249.2-50.9
		S911.4,11.8,901-104.5c-15.8-176.5-120.7-298.2-244.2-341.4c-78.9-27.6-166-24.8-240.4,8.7c20.7-80.5,66.8-139.9,130.1-185.1
		c83.4-59.5,199.7-90.3,319.5-85.7c239.7,9,478.7,147.7,518.9,432.8c12.8,90.8,4.7,181.7-37,264.7c-41.8,83-117.8,161.6-256.5,225.5
		L589.3,446C504.8,485,429.9,528.7,372,575.9s-108.4,96.3-110,174.7c-0.8,39.2,19.3,80.7,48.3,106.5c29.1,25.8,64.2,40.8,105.9,52.1
		c83.2,22.5,197.2,29.3,359.9,21.2l793.6-19.9c42.2-0.5,76.1-35.1,75.7-77.3c-0.5-42.2-35.1-76.1-77.3-75.7c-0.7,0-1.5,0-2.2,0.1
		L772,777.5c-0.6,0-1.3,0-1.9,0.1c-155,7.8-259.1-1.2-314-16c-17.1-4.6-28.5-9.7-35.7-13.6c6.5-10,20.1-30.6,48.2-53.5
		c43.1-35.1,108.9-74.6,184.7-109.5l502.1-231.1C1319,278.6,1426,174.5,1484.5,58.3c58.5-116.2,67.9-240.9,51.9-354.8
		c-51.1-362.8-366.6-553.1-664.6-564.3C862.4-861.3,853.1-861.4,843.8-861.5L843.8-861.5z M542.4-312.1c20.9-0.4,42.5,3.1,63.8,10.5
		c68.2,23.9,131.1,84.6,142.4,210.6c7.3,81.6-14.8,125.3-40.1,148.1C683.3,79.9,648.9,88,604.9,75.1c-74.8-22-173-115.2-195.9-314.8
		c7-4.7,13.2-10.6,18.2-17.3C454.3-292.1,496.5-311.3,542.4-312.1z"/>
</g>
</svg>
