<?xml version="1.0" encoding="utf-8"?>
<!-- Generator: Adobe Illustrator 22.1.0, SVG Export Plug-In . SVG Version: 6.00 Build 0)  -->
<svg version="1.1"
	 id="svg2992" inkscape:version="0.91pre2 r13516" sodipodi:docname="ള.svg" xmlns:cc="http://creativecommons.org/ns#" xmlns:dc="http://purl.org/dc/elements/1.1/" xmlns:inkscape="http://www.inkscape.org/namespaces/inkscape" xmlns:rdf="http://www.w3.org/1999/02/22-rdf-syntax-ns#" xmlns:sodipodi="http://sodipodi.sourceforge.net/DTD/sodipodi-0.dtd" xmlns:svg="http://www.w3.org/2000/svg"
	 xmlns="http://www.w3.org/2000/svg" xmlns:xlink="http://www.w3.org/1999/xlink" x="0px" y="0px" viewBox="0 0 2000 2048"
	 style="enable-background:new 0 0 2000 2048;" xml:space="preserve">
<sodipodi:namedview  bordercolor="#666666" borderopacity="1.0" id="base" inkscape:current-layer="layer1" inkscape:cx="226.83992" inkscape:cy="174.28808" inkscape:guide-bbox="true" inkscape:pageopacity="0.0" inkscape:pageshadow="2" inkscape:window-height="853" inkscape:window-maximized="1" inkscape:window-width="1600" inkscape:window-x="1598" inkscape:window-y="-3" inkscape:zoom="0.227" pagecolor="#ffffff" showgrid="true" showguides="true">
	<sodipodi:guide  id="guide5596" orientation="horizontal" position="0,600"></sodipodi:guide>
	
		<inkscape:grid  dotted="true" empspacing="3" enabled="true" id="grid3769" snapvisiblegridlinesonly="true" spacingx="4px" spacingy="4px" type="xygrid" units="px" visible="true">
		</inkscape:grid>
	<sodipodi:guide  id="guide2985" orientation="0,1" position="-1040,1600"></sodipodi:guide>
</sodipodi:namedview>
<g id="layer1" transform="translate(0,1048)" inkscape:groupmode="layer" inkscape:label="Layer 1">
	<path id="path3895-6" inkscape:connector-curvature="0" d="M1003.8-778.5c-55.3-0.6-112,4.5-167.8,15.8
		C724.4-740.2,615.4-692.4,531.3-611S391-413.5,386.9-269.6c-7.8,276.8,115.8,449.5,263.2,493c73.7,21.7,154.5,8.1,211.5-43.2
		s85.3-135,76.5-233.8c-13.4-149.8-102.5-253.1-207.3-289.7c-68-23.8-143.2-21-206.9,8.8c14.4-77.7,49.4-136.4,97.8-183.2
		c61.6-59.7,147.5-99,240.2-117.7s191.3-16.6,273.1,2.1s144.6,55.2,171.5,90.7c29,38.4,26.6,57.5,12.5,89.4s-49.7,71.1-91,105.1
		s-86.4,62.9-119,85.6c-16.3,11.3-27.4,15.5-45.1,38.2c-4.4,5.7-10.4,13.1-14.1,29c-3.7,15.9,1,44.3,14.9,60.3
		c27.8,31.9,45.8,24.5,57.4,24.8c129.2,3.5,212.6,26.7,253.8,51.3c41.2,24.6,42.8,37.1,39,60.2s-28.7,64-79.4,103
		c-50.8,39-124.6,76.1-213.2,100.5l-395,108.9c-79,21.8-147.2,53.8-199.4,93s-95.5,87.1-94.6,154.2c0.4,33.5,16.5,67.6,40.6,91.2
		c24.1,23.6,54.7,39.3,91.2,51.1c72.6,23.5,171.7,32.2,310.6,25.3l673.8-16.9c35.8-0.4,64.6-29.8,64.1-65.7
		c-0.4-35.8-29.8-64.6-65.7-64.1c-0.6,0-1.1,0-1.7,0l-673.8,16.9c-0.6,0-1.1,0-1.7,0.1c-130.7,6.6-218.6-3.8-265.8-19.1
		c-23.6-7.6-36.2-16.3-40.4-20.4c-1-0.9-0.7-0.6-1.1-0.9c1-1.3,9.5-23.1,42.3-47.8c35.1-26.4,90.5-53.6,155.9-71.6l395-108.9
		c102.9-28.4,190.8-71.2,257.9-122.8s116.2-111.9,128.3-184.4c12.2-72.5-28-149.9-100.5-193.2c-42.5-25.4-95.3-43.5-160.2-55.1
		c9.4-7.1,18.8-14.5,28.3-22.3c48.9-40.2,98.9-88.7,127.3-152.9S1463-550.8,1410-621c-55.2-73-144.9-115.9-246.1-139
		C1113.2-771.6,1059.2-777.9,1003.8-778.5z M1130.8-241.5c2.2-0.1,5.1,0.4,8.6,2c-4.7-0.2-9.1-0.5-13.9-0.6
		C1125.7-240.2,1127.4-241.4,1130.8-241.5z M633.8-229.8c17.7-0.3,36.1,2.6,54.2,8.9c57.9,20.2,111.3,71.8,120.9,178.8
		c6.2,69.3-12.5,106.4-34,125.7c-21.5,19.3-50.7,26.2-88,15.2C623.4,80.1,540,1.1,520.6-168.4c5.9-4,11.2-9,15.5-14.7
		C559-212.8,594.8-229.1,633.8-229.8z"/>
</g>
</svg>
