<?xml version="1.0" encoding="utf-8"?>
<!-- Svg Vector Icons : http://www.onlinewebfonts.com/icon -->
<!DOCTYPE svg PUBLIC "-//W3C//DTD SVG 1.1//EN" "http://www.w3.org/Graphics/SVG/1.1/DTD/svg11.dtd">
<svg version="1.1" xmlns="http://www.w3.org/2000/svg" xmlns:xlink="http://www.w3.org/1999/xlink" x="0px" y="0px" viewBox="0 0 1000 1000" enable-background="new 0 0 1000 1000" xml:space="preserve">
<metadata> Svg Vector Icons : http://www.onlinewebfonts.com/icon </metadata>
<g><g transform="translate(0.000000,511.000000) scale(0.100000,-0.100000)"><path d="M8809.6,4967.6c-51.3-31.2-1186.5-1066-2236.9-2040.6c-20.1-20.1,4.5-46.8,116-120.4c156.1-102.6,370.2-321.2,470.6-479.5c37.9-58,73.6-104.8,82.5-104.8c31.2,0,2058.5,2207.9,2085.3,2270.4c107,240.9-71.4,517.4-336.8,517.4C8918.9,5010,8852,4994.4,8809.6,4967.6z"/><path d="M5424.2,2679.4c-209.6-42.4-446.1-162.8-628.9-321.1c-533-459.4-738.2-606.6-1104-791.7c-423.7-216.3-858.6-359.1-1382.7-452.7c-287.7-51.3-388.1-60.2-907.7-62.4c-644.5-6.7-660.1-8.9-733.7-149.4c-46.8-89.2-31.2-202.9,60.2-497.3c390.3-1246.7,1402.8-2520.1,2678.5-3369.9c463.9-310,1199.8-640.1,1612.4-722.6c113.8-24.5,147.2-22.3,216.4,6.7c151.7,64.7,153.9,75.8,160.6,744.9c6.7,653.4,33.4,869.8,171.7,1389.4c169.5,640.1,488.4,1251.1,883.2,1701.7c390.3,446,486.2,595.5,555.3,865.3c58,220.8,49.1,524.1-22.3,747.1c-149.4,463.9-553.1,820.7-1028.1,912.2C5749.8,2719.6,5627.1,2719.6,5424.2,2679.4z M5178.8,835l606.6-608.8L5651.6,14.3c-292.1-459.4-508.5-965.7-644.5-1503.2C4897.8-1926,4851-2256,4835.4-2688.7c-8.9-234.2-22.3-352.4-37.9-352.4c-13.4,0-118.2,37.9-229.7,82.5c-169.5,69.1-207.4,93.7-218.6,140.5c-24.5,107.1-49.1,615.5-37.9,753.8c4.5,75.8,4.5,138.3,0,138.3c-6.7,0-100.4-156.1-207.4-345.7c-104.8-189.6-198.5-345.7-205.2-345.7c-24.5,0-441.6,285.5-604.4,412.6c-89.2,69.1-160.6,140.5-160.6,160.6c0,107.1,441.6,925.5,702.5,1300.2c174,252,171.7,252-80.3,11.2c-265.4-254.3-631.1-553.1-918.8-749.3c-165-113.8-200.7-131.6-229.7-107.1c-111.5,91.4-700.3,820.7-700.3,863.1c0,8.9,51.3,44.6,113.7,80.3c247.6,138.3,945.6,722.6,907.7,760.5c-4.5,6.7-84.7-13.4-176.2-44.6c-323.4-111.5-702.5-194-1037-225.2l-156.1-13.4l-104.8,232c-58,129.4-118.2,276.5-136,325.6l-33.5,93.7h216.3c972.4,2.2,2156.6,345.7,2870.3,834.1c98.1,66.9,182.9,122.7,189.6,122.7C4567.7,1441.7,4844.3,1167.3,5178.8,835z"/><path d="M6171.3-2327.4c-392.5-198.5-481.7-729.3-174-1034.8c131.6-131.6,238.6-178.4,441.6-187.3c145-6.7,189.6,0,292.1,46.8c147.2,66.9,260.9,176.2,330.1,318.9c42.4,87,51.3,142.7,51.3,276.6c-2.2,198.5-40.2,296.6-169.5,439.3c-133.8,145-238.6,191.8-452.7,202.9C6325.1-2258.3,6300.6-2262.7,6171.3-2327.4z"/><path d="M8463.9-3043.3c-254.2-102.6-303.3-463.9-84.7-631.2c149.4-111.5,323.4-104.8,461.7,22.3C9137.5-3386.8,8834.1-2896.1,8463.9-3043.3z"/><path d="M7114.7-3797.1c-185.1-87-301.1-267.6-301.1-475c2.2-604.4,847.5-718.1,1017-136c95.9,332.3-149.4,653.5-497.3,653.5C7255.2-3754.7,7168.2-3772.6,7114.7-3797.1z"/></g></g>
</svg>