<?xml version="1.0" encoding="utf-8"?>
<!-- Generator: Adobe Illustrator 22.1.0, SVG Export Plug-In . SVG Version: 6.00 Build 0)  -->
<svg version="1.1"
	 id="svg2992" inkscape:version="0.91pre2 r13516" sodipodi:docname="ജ.svg" xmlns:cc="http://creativecommons.org/ns#" xmlns:dc="http://purl.org/dc/elements/1.1/" xmlns:inkscape="http://www.inkscape.org/namespaces/inkscape" xmlns:rdf="http://www.w3.org/1999/02/22-rdf-syntax-ns#" xmlns:sodipodi="http://sodipodi.sourceforge.net/DTD/sodipodi-0.dtd" xmlns:svg="http://www.w3.org/2000/svg"
	 xmlns="http://www.w3.org/2000/svg" xmlns:xlink="http://www.w3.org/1999/xlink" x="0px" y="0px" viewBox="0 0 2000 2048"
	 style="enable-background:new 0 0 2000 2048;" xml:space="preserve">
<style type="text/css">
	.st0{fill:none;stroke:#000000;stroke-width:130;stroke-linecap:round;stroke-linejoin:round;}
</style>
<sodipodi:namedview  bordercolor="#666666" borderopacity="1.0" id="base" inkscape:current-layer="layer1" inkscape:cx="-292.44185" inkscape:cy="696.99027" inkscape:guide-bbox="true" inkscape:pageopacity="0.0" inkscape:pageshadow="2" inkscape:window-height="853" inkscape:window-maximized="1" inkscape:window-width="1600" inkscape:window-x="1598" inkscape:window-y="-3" inkscape:zoom="0.32102648" pagecolor="#ffffff" showgrid="true" showguides="true">
	<sodipodi:guide  id="guide5596" orientation="horizontal" position="0,600"></sodipodi:guide>
	
		<inkscape:grid  dotted="true" empspacing="3" enabled="true" id="grid3769" snapvisiblegridlinesonly="true" spacingx="4px" spacingy="4px" type="xygrid" units="px" visible="true">
		</inkscape:grid>
	<sodipodi:guide  id="guide2985" orientation="0,1" position="-1040,1600"></sodipodi:guide>
</sodipodi:namedview>
<g id="layer1" transform="translate(0,1048)" inkscape:groupmode="layer" inkscape:label="Layer 1">
	<path id="path3925" inkscape:connector-curvature="0" sodipodi:nodetypes="cccccsssssc" class="st0" d="M257.2-131.3
		c95.3-198.1,288.1-216.9,348.1-14.3c109.1,480.4-444.8,344.2-380.4-125.2c102.5-583,631.5-443.4,675.4-14.4
		c-19.8,531.9-43.8,563.9,9.2,5.4c266.2-889.8,1062.3-68.4,390.5,396.4C1004.7,320.9,858.7,217.9,537,323.7
		C-23.7,508,444.9,748.2,817.7,559.5C974,480.4,1171.4,350.4,1325,329.1c343.4-47.7,371.5,109.5,303.1,278.3
		c-56.7,140-338.9,134.1-362.9-196.4"/>
</g>
</svg>
